<svg width="57" height="57" viewBox="0 0 57 57" fill="none" xmlns="http://www.w3.org/2000/svg">
<rect width="57" height="57" rx="28.5" fill="#E2FFFE"/>
<path d="M21.809 12.4231C21.917 12.4655 31.9681 23.7442 32.9258 24.7987C33.6018 22.4003 34.907 18.5333 38.0986 18.8517C38.5567 18.8974 38.9231 19.0416 39.4036 19.0036C40.0165 18.9552 40.6316 18.91 41.2447 18.8707L46.7414 18.5077C47.5408 18.4535 49.2321 18.2856 49.9458 18.3258C49.0233 18.6465 47.9036 19.2036 46.9894 19.5877L39.5922 22.7371C39.5733 22.7452 39.5431 22.7629 39.5361 22.7839C39.4853 22.9361 39.8608 24.5594 39.9192 24.8378C40.7485 28.8038 41.7337 34.9326 40.1838 38.7545C39.1427 41.3214 37.5136 42.0011 35.1193 43.0121C25.3079 47.0379 17.123 42.7689 10.547 35.3838C9.1239 33.7855 7.88117 32.1402 6.57715 30.4499C7.23819 30.4675 7.89126 30.5881 8.54699 30.6832C9.44369 30.8159 10.3417 30.9395 11.2409 31.054C13.6772 31.3619 16.1033 31.5795 18.5528 31.7543C20.7296 31.9096 22.7929 31.952 24.964 31.7064C22.9427 28.0848 20.4999 22.2996 20.2536 18.1579C20.149 16.399 20.3843 15.0105 21.1957 13.4339C21.3677 13.0996 21.5594 12.703 21.809 12.4231ZM11.4987 33.2276C12.0433 33.743 12.72 34.5801 13.2946 35.1708C14.8175 36.7604 16.507 38.1815 18.334 39.4096C21.8701 41.6631 25.5522 42.885 29.7649 42.2489C30.3033 42.1676 30.7975 42.0745 31.3293 41.9808C31.3417 38.4282 31.5062 34.8778 31.8227 31.3393C31.8973 30.5183 32.0251 29.6893 32.1395 28.8729C32.2021 28.4259 32.3241 27.8323 32.3447 27.3947L24.2649 18.3663C24.0497 18.1295 22.6297 16.4849 22.4721 16.3806C21.8401 19.7964 24.5908 26.3403 26.1951 29.4461C26.352 29.75 27.6259 32.044 27.6287 32.1459C27.6366 32.4327 27.0142 33.114 26.785 33.2722C24.705 34.7076 16.6102 33.8162 13.9193 33.5135C13.2006 33.4327 12.4464 33.425 11.7381 33.2862C11.6575 33.2703 11.5776 33.2508 11.4987 33.2276ZM33.4667 41.3137C34.036 41.0968 34.3779 41.0073 34.942 40.7335C36.4392 40.1037 37.5829 39.6122 38.1954 37.9373C39.095 35.4772 38.869 32.7959 38.6376 30.2319C38.4672 28.3435 38.0288 26.3848 37.6618 24.5182C37.5943 24.1749 37.0698 21.427 36.9343 21.3249C36.0801 22.1577 35.5896 23.3832 35.2579 24.5131C33.9101 29.1042 33.7344 33.9698 33.526 38.7204C33.4891 39.5603 33.5566 40.485 33.4667 41.3137Z" fill="black"/>
</svg>
