<svg width="138" height="128" viewBox="0 0 138 128" fill="none" xmlns="http://www.w3.org/2000/svg">
<path d="M86.8 112V99.25H106C107.813 99.25 109.333 98.6391 110.56 97.4172C111.787 96.1953 112.4 94.6813 112.4 92.875V80.125C112.4 76.0875 113.573 72.4219 115.92 69.1281C118.267 65.8344 121.36 63.4969 125.2 62.1156V59.8844C121.36 58.5031 118.267 56.1656 115.92 52.8719C113.573 49.5781 112.4 45.9125 112.4 41.875V29.125C112.4 27.3188 111.787 25.8047 110.56 24.5828C109.333 23.3609 107.813 22.75 106 22.75H86.8V10H106C111.333 10 115.867 11.8594 119.6 15.5781C123.333 19.2969 125.2 23.8125 125.2 29.125V41.875C125.2 43.6813 125.813 45.1953 127.04 46.4172C128.267 47.6391 129.787 48.25 131.6 48.25H138V73.75H131.6C129.787 73.75 128.267 74.3609 127.04 75.5828C125.813 76.8047 125.2 78.3187 125.2 80.125V92.875C125.2 98.1875 123.333 102.703 119.6 106.422C115.867 110.141 111.333 112 106 112H86.8ZM42 112C36.6667 112 32.1333 110.141 28.4 106.422C24.6667 102.703 22.8 98.1875 22.8 92.875V80.125C22.8 78.3187 22.1867 76.8047 20.96 75.5828C19.7333 74.3609 18.2133 73.75 16.4 73.75H10V48.25H16.4C18.2133 48.25 19.7333 47.6391 20.96 46.4172C22.1867 45.1953 22.8 43.6813 22.8 41.875V29.125C22.8 23.8125 24.6667 19.2969 28.4 15.5781C32.1333 11.8594 36.6667 10 42 10H61.2V22.75H42C40.1867 22.75 38.6667 23.3609 37.44 24.5828C36.2133 25.8047 35.6 27.3188 35.6 29.125V41.875C35.6 45.9125 34.4267 49.5781 32.08 52.8719C29.7333 56.1656 26.64 58.5031 22.8 59.8844V62.1156C26.64 63.4969 29.7333 65.8344 32.08 69.1281C34.4267 72.4219 35.6 76.0875 35.6 80.125V92.875C35.6 94.6813 36.2133 96.1953 37.44 97.4172C38.6667 98.6391 40.1867 99.25 42 99.25H61.2V112H42Z" fill="#0AC4D0"/>
</svg>
